<?xml version="1.0" encoding="utf-8"?>
<!-- Generator: Adobe Illustrator 22.1.0, SVG Export Plug-In . SVG Version: 6.00 Build 0)  -->
<svg version="1.1" id="Layer_1" xmlns="http://www.w3.org/2000/svg" xmlns:xlink="http://www.w3.org/1999/xlink" x="0px" y="0px"
	 viewBox="0 0 300 786" style="enable-background:new 0 0 300 786;" xml:space="preserve">
<style type="text/css">
	.st0{opacity:0;}
	.st1{fill:#FFFFFF;}
	.st2{fill:#CCCCCC;}
	.st3{fill:#565656;}
	.st4{fill:#999999;}
	.st5{fill:#333333;}
	.st6{fill:#666666;}
	.st7{fill:#2B5CAA;}
	.st8{fill:#C8C8C8;}
	.st9{fill:#323232;}
	.st10{fill:#494949;}
	.st11{fill:#81BF4B;}
</style>
<title>ilog_interface_icons_small</title>
<g class="st0">
	<rect x="0.5" y="0.3" class="st1" width="449" height="74"/>
	<path d="M449,0.8v73H1v-73L449,0.8 M450-0.2H0v75h450V-0.2z"/>
</g>
<path class="st2" d="M29.7,37.1c0,3.3,0.4,15.6,3.1,18.5c2.6,2.8,9,3,11.1,2.7c2.1-0.3,0.5-9.5-0.3-11.6c-0.8-2.1-8.9,3.6-8.7-9.4
	v-0.6c0.1-13,8.1-6.3,8.9-8.3c0.8-2,2.6-11,0.5-11.5s-8.4-1.1-11.1,1.4c-2.7,2.5-3.5,14.8-3.5,18.1L29.7,37.1z"/>
<path class="st2" d="M262.8,29.5c-3.3,0-15.6,0.4-18.5,3.1c-2.8,2.6-3,9-2.7,11.1s9.5,0.5,11.6-0.3s-3.6-8.9,9.4-8.7h0.6
	c13,0.1,6.3,8.1,8.3,8.9c2,0.8,11,2.6,11.5,0.5s1.1-8.4-1.4-11.1c-2.5-2.7-14.8-3.5-18.1-3.5H262.8z"/>
<path class="st2" d="M109.4,45.1c0,1.7-1.5,3-3.1,3s-2.9-1.3-3-3V29.6c0-1.7,1.4-3,3.1-3c1.6,0,2.9,1.4,3,3V45.1z"/>
<path class="st2" d="M121.7,45.1c0,1.7-1.5,3-3.1,3s-2.9-1.3-3-3V29.6c0-1.7,1.4-3,3.1-3c1.6,0,2.9,1.4,3,3V45.1z"/>
<rect x="177.3" y="27" class="st2" width="5.5" height="5.5"/>
<rect x="184.9" y="27" class="st2" width="5.5" height="5.5"/>
<rect x="192.3" y="27" class="st2" width="5.5" height="5.5"/>
<rect x="177.3" y="34.5" class="st2" width="5.5" height="5.5"/>
<rect x="184.9" y="34.5" class="st2" width="5.5" height="5.5"/>
<rect x="192.3" y="34.5" class="st2" width="5.5" height="5.5"/>
<rect x="177.3" y="42.2" class="st2" width="5.5" height="5.5"/>
<rect x="184.9" y="42.2" class="st2" width="5.5" height="5.5"/>
<rect x="192.3" y="42.2" class="st2" width="5.5" height="5.5"/>
<path class="st3" d="M25.3,192.4v1.5c0,0.4-0.3,0.7-0.7,0.7l0,0H20c-0.4,0-0.7-0.3-0.7-0.7l0,0v-1.5c0-0.4,0.3-0.7,0.7-0.7l0,0h4.6
	C25,191.7,25.3,192,25.3,192.4L25.3,192.4"/>
<path class="st3" d="M48.1,192.2c-0.3-0.6-2.5-1.9-2.5-1.9s-2.5-0.9-2.6-1.5c-0.1-0.4-0.1-0.9-0.1-1.3c1.4-0.8,2.2-2.4,2.1-3.9
	c0-2.4-1.6-4.3-3.5-4.3s-3.5,1.9-3.5,4.3c-0.1,1.6,0.7,3.1,2.1,3.9c0,0.4,0,0.9-0.1,1.3c-0.1,0.6-2.6,1.5-2.6,1.5s-2.3,1.3-2.5,1.9
	c-0.2,0.7-0.2,1.4,0,2.1h13.2C48.3,193.6,48.3,192.9,48.1,192.2"/>
<path class="st3" d="M25.3,181.3v1.5c0,0.4-0.3,0.7-0.7,0.7l0,0H20c-0.4,0-0.7-0.3-0.7-0.7l0,0v-1.5c0-0.4,0.3-0.7,0.7-0.7l0,0h4.6
	C25,180.5,25.3,180.9,25.3,181.3L25.3,181.3"/>
<path class="st3" d="M53.8,171.3H24c-0.6,0-1.1,0.5-1.1,1.1v7.2h1.6c1,0,1.8,0.8,1.8,1.8v1.4c0,1-0.8,1.8-1.8,1.8h-1.6v6.2h1.6
	c1,0,1.8,0.8,1.8,1.8v1.4c0,1-0.8,1.8-1.8,1.8l0,0h-1.6v6.4c0,0.6,0.5,1.1,1.1,1.1h29.7c0.6,0,1.1-0.5,1.1-1.1v-29.7
	C54.9,171.8,54.4,171.3,53.8,171.3 M51.9,199.5c0,0.4-0.4,0.8-0.8,0.8l0,0H31.9c-0.4,0-0.8-0.4-0.8-0.8l0,0V175
	c0-0.4,0.4-0.8,0.8-0.8l0,0h19.2c0.4,0,0.8,0.4,0.8,0.8l0,0C51.9,175,51.9,199.5,51.9,199.5z"/>
<path class="st3" d="M178.9,171.1h-6.4c-0.6,0-1,0.5-1,1v30.8c0,0.6,0.5,1,1,1l0,0h6.4c0.6,0,1-0.5,1-1l0,0v-30.8
	C180,171.6,179.5,171.1,178.9,171.1 M175.7,183.2c-1.5,0-2.8-1.2-2.8-2.8s1.2-2.8,2.8-2.8s2.8,1.2,2.8,2.8l0,0
	C178.5,182,177.3,183.2,175.7,183.2C175.8,183.2,175.7,183.2,175.7,183.2"/>
<path class="st3" d="M189.9,171.1h-6.4c-0.6,0-1,0.5-1,1v30.8c0,0.6,0.5,1,1,1l0,0h6.4c0.6,0,1-0.5,1-1l0,0v-30.8
	C191,171.6,190.5,171.1,189.9,171.1 M186.8,183.2c-1.5,0-2.8-1.2-2.8-2.8s1.2-2.8,2.8-2.8s2.8,1.2,2.8,2.8l0,0
	C189.5,182,188.3,183.2,186.8,183.2L186.8,183.2"/>
<path class="st3" d="M198.1,170.5l-6.3,0.9c-0.6,0.1-1,0.6-0.9,1.2l0,0l4.5,30.4c0.1,0.6,0.6,1,1.2,0.9l0,0l6.3-0.9
	c0.6-0.1,1-0.6,0.9-1.2l-4.5-30.4C199.2,170.8,198.6,170.5,198.1,170.5 M196.7,183c-1.5,0.2-2.9-0.8-3.1-2.3
	c-0.2-1.5,0.8-2.9,2.3-3.1c1.5-0.2,2.9,0.8,3.1,2.3l0,0C199.3,181.4,198.2,182.8,196.7,183L196.7,183"/>
<path class="st3" d="M198.8,106.8h-18.5v-2.6c0-0.6-0.6-1.1-1.2-1.1h-6.9c-0.6,0-1.2,0.4-1.2,1.1v20.4c0,0.6,0.6,1.1,1.2,1.1h26.6
	c0.6,0,1.2-0.4,1.2-1.1v-16.8C200,107.2,199.4,106.8,198.8,106.8"/>
<path class="st3" d="M198.8,106.8h-18.5v-2.6c0-0.6-0.6-1.1-1.2-1.1h-6.9c-0.6,0-1.2,0.4-1.2,1.1v20.4c0,0.6,0.6,1.1,1.2,1.1h26.6
	c0.6,0,1.2-0.4,1.2-1.1v-16.8C200,107.2,199.4,106.8,198.8,106.8"/>
<path class="st3" d="M203.2,103h-18.5v-2.6c0-0.6-0.6-1.1-1.2-1.1h-6.9c-0.6,0-1.2,0.4-1.2,1.1v0.8h5.9c0.6,0,1.2,0.4,1.2,1.1v2.6
	H201c0.6,0,1.2,0.4,1.2,1.1v15.9h1c0.6,0,1.2-0.4,1.2-1.1V104C204.3,103.5,203.8,103,203.2,103"/>
<path class="st3" d="M127.2,171.3h-29c-0.8,0-1.5,0.7-1.5,1.5v19c0,0.8,0.7,1.5,1.5,1.5h13v1.9l-5.5,5.5c-0.6,0.6-0.6,1.5,0,2.1
	s1.5,0.6,2.1,0l0,0l4.9-4.9l4.9,4.9c0.6,0.6,1.5,0.6,2.1,0s0.6-1.5,0-2.1l0,0l-5.5-5.5v-1.9h13c0.8,0,1.5-0.7,1.5-1.5v-19
	C128.7,171.9,128,171.3,127.2,171.3z M125.7,190.2h-26v-16h26V190.2z"/>
<path class="st3" d="M101.2,183.6h4.3c0.3,0,0.5-0.1,0.7-0.3l1.5-1.7l1.5,3.7c0.2,0.5,0.8,0.8,1.3,0.6c0.1-0.1,0.2-0.1,0.3-0.2
	l2.6-2.6l1.6,1.6c0.2,0.2,0.5,0.3,0.8,0.3s0.5-0.1,0.7-0.4l4.3-5.2c0.3-0.4,0.3-1.1-0.2-1.4c-0.4-0.3-1-0.3-1.4,0.1l-3.6,4.4
	l-1.6-1.6c-0.4-0.4-1-0.4-1.4,0l-2.2,2.2l-1.5-3.7c-0.2-0.5-0.8-0.8-1.3-0.6c-0.1,0.1-0.3,0.1-0.4,0.2l-2.3,2.5H101
	c-0.6,0-1,0.4-1,1S100.6,183.6,101.2,183.6L101.2,183.6z"/>
<path class="st4" d="M273.8,118.9v5.4c0,0.5-0.4,1-1,1h-20c-0.5,0-1-0.4-1-1v-23.5c0-0.5,0.4-1,1-1l0,0h20c0.5,0,1,0.4,1,1v7.1
	l2.2-2.9v-6.4c0-0.5-0.4-1-1-1h-24.4c-0.5,0-1,0.4-1,1l0,0v27.9c0,0.5,0.4,1,1,1l0,0H275c0.5,0,1-0.4,1-1V116L273.8,118.9z"/>
<path class="st4" d="M269.2,122.1l-9.5-7.1c-0.1-0.1-0.2-0.3-0.1-0.4l0,0l2-2.7c0.1-0.1,0.3-0.2,0.4-0.1l0,0l6.4,4.7
	c0.1,0.1,0.3,0.1,0.4-0.1l0,0l11-14.8c0.1-0.1,0.3-0.1,0.4-0.1l2.7,2c0.1,0.1,0.2,0.3,0.1,0.4l0,0L269.6,122
	C269.5,122.2,269.3,122.2,269.2,122.1L269.2,122.1"/>
<path class="st3" d="M49.9,110.9l1.7,1.6l1.6-1.5l-3.6-3.4v-7.5h-4.4v3.3l-8.1-7.7l-1.6,1.5l0,0L21,111.1l1.5,1.5l2.4-2.3V127h-3
	v2.4h30.3V127h-2.4v-16.1H49.9z M27,108.5l10.2-9.8L48,109.1l0,0V127h-5.9v-12h-9.4v12H27V108.5z M40.4,121.6c0-0.3,0.3-0.6,0.6-0.6
	s0.6,0.3,0.6,0.6c0,0.3-0.3,0.6-0.6,0.6l0,0C40.6,122.2,40.4,121.9,40.4,121.6L40.4,121.6z"/>
<rect x="104.9" y="113.6" class="st3" width="15.6" height="2.2"/>
<rect x="104.9" y="120.3" class="st3" width="15.6" height="2.2"/>
<path class="st3" d="M104.8,109.9h7v-7h-7V109.9z M110,108.1h-3.5v-3.5h3.5V108.1z"/>
<path class="st3" d="M125.2,95.8h-24.8c-1.5,0-2.2,1.2-2.2,2.7v28.1c0,1.5,0.7,2.7,2.2,2.7h24.8c1.5,0,2-1.2,2-2.7V98.5
	C127.2,97,126.8,95.8,125.2,95.8 M124.9,127h-24.5V98h24.5V127z"/>
<rect x="104.9" y="117" class="st3" width="15.6" height="2.2"/>
<path d="M194.1,336.9v-4.4c0-3.7-3-6.7-6.6-6.7c-3.7,0-6.7,3-6.7,6.6c0,0,0,0,0,0.1v4.4h-2.2V348h17.8v-11.1H194.1z M182.9,336.9
	v-4.4c0-2.5,2-4.5,4.4-4.5c2.5,0,4.5,2,4.5,4.4c0,0,0,0,0,0.1v4.4H182.9z"/>
<path d="M112.3,336.9v-4.4c0-3.7-3-6.7-6.7-6.7s-6.7,3-6.7,6.7l0,0v4.4h2.2v-4.4c0-2.5,2-4.4,4.5-4.4c2.4,0,4.4,2,4.4,4.4v4.4h-2.2
	V348h17.8v-11.1H112.3z"/>
<path class="st5" d="M190.7,570.7l-5.4-5.4c2.7-3.5,2-8.6-1.6-11.2c-3.5-2.7-8.6-2-11.2,1.6c-2.7,3.5-2,8.6,1.6,11.2
	c2.9,2.2,6.8,2.2,9.7,0l5.4,5.4c0.4,0.4,1.1,0.4,1.6,0C191.2,571.8,191.2,571.1,190.7,570.7z M179,566.3c-3.2,0-5.7-2.6-5.7-5.7
	s2.6-5.7,5.7-5.7c3.2,0,5.7,2.6,5.7,5.7l0,0C184.7,563.7,182.2,566.3,179,566.3L179,566.3z"/>
<polygon class="st5" points="197.7,571.5 192.2,562.6 203.3,562.6 "/>
<path d="M257.8,336.9v-4.4c0-3.7-3-6.7-6.6-6.7c-3.7,0-6.7,3-6.7,6.6c0,0,0,0,0,0.1v4.4h-2.2V348H260v-11.1H257.8z M246.7,336.9
	v-4.4c0-2.5,2-4.5,4.4-4.5c2.5,0,4.5,2,4.5,4.4c0,0,0,0,0,0.1v4.4H246.7z"/>
<polygon class="st5" points="277.2,339.9 271.7,334.4 282.8,334.4 "/>
<polygon class="st6" points="187.4,705.6 178,718.9 196.9,718.9 "/>
<polygon class="st6" points="194,637.6 180.7,628.1 180.7,647 "/>
<polygon class="st6" points="255.9,712.2 269.2,721.7 269.2,702.8 "/>
<polygon class="st6" points="262.5,644.2 272,630.9 253.1,630.9 "/>
<polygon class="st5" points="279.2,567.6 273.7,558.7 284.8,558.7 "/>
<rect x="239.2" y="555.4" class="st5" width="24.4" height="2.2"/>
<rect x="239.2" y="559.5" class="st5" width="24.4" height="2.2"/>
<rect x="239.2" y="563.5" class="st5" width="24.4" height="2.2"/>
<rect x="239.2" y="567.6" class="st5" width="20" height="2.2"/>
<polygon points="47,636.5 38.2,636.5 38.2,627.6 35.9,627.6 35.9,636.5 27,636.5 27,638.7 35.9,638.7 35.9,647.6 38.2,647.6 
	38.2,638.7 47,638.7 "/>
<polygon class="st5" points="279.3,264.4 273.7,255.6 284.8,255.6 "/>
<path d="M265.2,263.9v-3.3h-4c-0.2-1-0.6-2-1.2-2.9l2.9-2.9l-2.4-2.4l-2.9,2.9c-0.9-0.6-1.9-1-2.9-1.2V250h-3.3v4.1
	c-1,0.2-2,0.6-2.9,1.2l-2.9-2.9l-2.4,2.4l2.9,2.9c-0.6,0.9-1,1.9-1.2,2.9h-4v3.3h4c0.2,1,0.6,2,1.2,2.9l-2.9,2.9l2.4,2.4l2.9-2.9
	c0.9,0.6,1.9,1,2.9,1.2v4.1h3.3v-4.1c1-0.2,2-0.6,2.9-1.2l2.9,2.9l2.4-2.4l-2.9-2.9c0.6-0.9,1-1.9,1.2-2.9H265.2z M253,266.7
	c-2.5,0-4.4-2-4.4-4.4s2-4.4,4.4-4.4s4.4,2,4.4,4.4l0,0C257.4,264.7,255.4,266.7,253,266.7z"/>
<path class="st1" d="M257,178.3h11.1c1.8,0,3.3,1.5,3.3,3.3v6.7c0,1.8-1.5,3.3-3.3,3.3H257c-1.8,0-3.3-1.5-3.3-3.3v-6.7
	C253.6,179.8,255.1,178.3,257,178.3z"/>
<path class="st7" d="M268.1,179.5c1.2,0,2.2,1,2.2,2.2v6.7c0,1.2-1,2.2-2.2,2.2H257c-1.2,0-2.2-1-2.2-2.2v-6.7c0-1.2,1-2.2,2.2-2.2
	H268.1 M268.1,177.2H257c-2.4,0-4.4,2-4.4,4.4v6.7c0,2.4,2,4.4,4.4,4.4v4.4l3.3-4.4h7.8c2.4,0,4.4-2,4.4-4.4v-6.7
	C272.5,179.2,270.5,177.2,268.1,177.2L268.1,177.2z"/>
<rect x="257" y="181.2" class="st7" width="11.2" height="1.7"/>
<rect x="257" y="184.2" class="st7" width="11.2" height="1.7"/>
<rect x="257" y="187.3" class="st7" width="9" height="1.7"/>
<path class="st8" d="M51.8,735H22.5c-1.6,0-2.9-1.3-2.9-2.9v-39.8c0-1.6,1.3-2.9,2.9-2.9h29.3c1.6,0,2.9,1.3,2.9,2.9v39.8
	C54.7,733.7,53.4,735,51.8,735z M22.5,691.7c-0.4,0-0.6,0.3-0.6,0.6l0,0v39.8c0,0.4,0.3,0.6,0.6,0.6h29.3c0.4,0,0.6-0.3,0.6-0.6
	v-39.8c0-0.4-0.3-0.6-0.6-0.6l0,0H22.5z"/>
<path class="st8" d="M35.9,717.6v-0.8c0-1.3,0.2-2.6,0.8-3.8c0.6-1.1,1.4-2,2.2-2.9c0.6-0.6,1.1-1.3,1.5-2c0.2-0.5,0.4-1.1,0.4-1.7
	c0-1.1-0.4-2.1-1.1-2.9c-0.6-0.8-1.5-1.2-2.5-1.2c-0.9,0-1.8,0.4-2.5,1.1c-0.8,1-1.2,2.2-1.3,3.5l-2.4-0.3c0.1-1.8,0.8-3.6,2-5
	c1.1-1.1,2.6-1.7,4.2-1.6c1.6,0,3.2,0.6,4.3,1.8c1.2,1.2,1.8,2.8,1.7,4.5c0,0.9-0.2,1.9-0.6,2.7c-0.6,1.1-1.3,2.2-2.2,3.1
	c-0.7,0.7-1.3,1.5-1.8,2.4c-0.3,1-0.4,2.1-0.4,3.1L35.9,717.6L35.9,717.6z M35.7,723.3v-3.2h2.6v3.2H35.7z"/>
<path class="st8" d="M129.8,701.5c0-0.3-0.1-0.5-0.3-0.7l-10.3-10.9c-0.2-0.2-0.4-0.3-0.7-0.3l0,0h-21c-1.5,0-2.7,1.3-2.7,2.9v39.8
	c0,1.5,1.2,2.8,2.7,2.9h29.6c1.5,0,2.7-1.3,2.7-2.9V701.5L129.8,701.5z M127.1,701.5h-8.5c-0.1,0-0.2-0.1-0.2-0.3v-8.9L127.1,701.5z
	 M127.6,732.1c0,0.3-0.2,0.6-0.5,0.6H97.5c-0.3,0-0.5-0.3-0.5-0.6v-39.8c0-0.3,0.2-0.6,0.5-0.6h18.8v9.5c0,1.3,1,2.5,2.4,2.5h8.9
	C127.6,703.7,127.6,732.1,127.6,732.1z"/>
<rect x="111.1" y="707.8" class="st8" width="11" height="2.2"/>
<rect x="111.1" y="715.6" class="st8" width="11" height="2.2"/>
<rect x="111.1" y="723.4" class="st8" width="11" height="2.2"/>
<polygon class="st8" points="103.7,711.7 100.9,708.7 102.6,707.2 103.9,708.6 108.3,704.7 109.8,706.4 "/>
<polygon class="st8" points="103.7,719.9 100.9,716.9 102.6,715.4 103.9,716.8 108.3,712.9 109.8,714.5 "/>
<polygon class="st8" points="103.7,728.1 100.9,725 102.6,723.5 103.9,725 108.3,721 109.8,722.7 "/>
<path class="st1" d="M129.4,654.8H95v-34.4h34.4V654.8z M98,651.8h28.4v-28.4H98V651.8z"/>
<polygon class="st1" points="108.7,645.5 101.7,638.6 103.8,636.5 108.7,641.2 119.8,629.7 121.9,631.7 "/>
<path class="st9" d="M194.9,414c0,4.2-3.4,7.6-7.6,7.6c-4.2,0-7.6-3.4-7.6-7.6c0-3.8,2.8-7,6.5-7.6v3.9l8.1-5.5l-8.1-5.5v3.8
	c-6,0.6-10.3,6-9.7,12s6,10.3,12,9.7c5.6-0.6,9.8-5.3,9.8-10.9h-3.4V414z"/>
<path class="st9" d="M44.8,550.1H30.2c-1.3,0-2.4,1.1-2.4,2.4v20.1c0,1.3,1.1,2.4,2.4,2.4h14.6c1.3,0,2.4-1.1,2.4-2.4v-20.1
	C47.3,551.2,46.2,550.1,44.8,550.1z M30,572.6v-20.1c0-0.1,0.1-0.2,0.2-0.2h9.5v20.5h-9.5C30.1,572.8,30,572.7,30,572.6z M45,572.6
	c0,0.1-0.1,0.2-0.2,0.2H42v-20.5h2.9c0.1,0,0.2,0.1,0.2,0.2v20.1H45z"/>
<path class="st9" d="M119.7,550.1h-14.6c-1.4,0-2.4,1.1-2.4,2.4v20c0,1.4,1.1,2.4,2.4,2.4h14.6c1.4,0,2.4-1.1,2.4-2.4v-20
	C122.1,551.2,121,550.1,119.7,550.1z M119.9,552.6v8.9h-6.4v-9.1h6.2C119.8,552.4,119.9,552.5,119.9,552.6L119.9,552.6L119.9,552.6z
	 M105.1,552.4h6.2v9.1h-6.4v-8.9C104.8,552.5,104.9,552.4,105.1,552.4L105.1,552.4L105.1,552.4z M104.8,572.6v-8.9h6.4v9.1H105
	C104.9,572.8,104.8,572.7,104.8,572.6L104.8,572.6L104.8,572.6z M119.6,572.8h-6.2v-9.1h6.4v8.9
	C119.9,572.7,119.8,572.8,119.6,572.8z"/>
<path class="st10" d="M37.2,500.8c-7.6,0-13.8-6.2-13.8-13.8c0-7.6,6.2-13.8,13.8-13.8S51,479.4,51,487l0,0
	C50.9,494.7,44.8,500.8,37.2,500.8z M37.2,476.7c-5.8,0-10.4,4.7-10.4,10.4s4.7,10.4,10.4,10.4s10.4-4.7,10.4-10.4l0,0
	C47.6,481.3,42.9,476.7,37.2,476.7L37.2,476.7z"/>
<polygon class="st10" points="36.7,488.9 30.7,484.1 32.8,481.5 37.6,485.3 46.5,483.9 47,487.2 "/>
<path class="st10" d="M199.5,255.6h-16.3v-2.3c0-0.6-0.5-1-1.1-0.9h-6c-0.6,0-1,0.4-1.1,0.9v18c0,0.6,0.5,1,1.1,0.9h23.4
	c0.6,0,1-0.4,1.1-0.9v-14.8C200.6,255.9,200.1,255.5,199.5,255.6"/>
<polygon points="18.5,269.1 11.5,258.1 25.3,258.1 "/>
<path d="M63,254.3H43.7v-2.7c-0.1-0.7-0.6-1.1-1.3-1.1h-7.2c-0.7,0-1.2,0.4-1.3,1.1v21.3c0.1,0.7,0.6,1.1,1.3,1.1H63
	c0.7,0,1.2-0.4,1.3-1.1v-17.5C64.2,254.8,63.7,254.3,63,254.3"/>
<polygon class="st6" points="99.5,263.7 88.4,270.5 88.4,256.7 "/>
<path class="st11" d="M137.4,254.3h-19.3v-2.7c-0.1-0.7-0.6-1.1-1.3-1.1h-7.2c-0.7,0-1.2,0.4-1.3,1.1v21.3c0.1,0.7,0.6,1.1,1.3,1.1
	h27.8c0.7,0,1.2-0.4,1.3-1.1v-17.5C138.6,254.8,138.1,254.3,137.4,254.3"/>
<polygon class="st10" points="125.6,483.8 123,481.7 119,486.3 113.9,485.4 112.2,480.5 116.2,475.8 113.7,473.7 108.4,479.8 
	110.8,486.4 99,498.2 101.3,500.5 113.2,488.6 120.3,490 "/>
<polygon class="st10" points="274.7,488.3 262.5,474.2 250.3,488.3 255,488.3 255,500 270,500 270,488.3 "/>
<path class="st10" d="M187.4,475c-6.7,0-12.1,5.4-12.1,12.1s5.4,12.1,12.1,12.1c6.7,0,12.1-5.4,12.1-12.1l0,0
	C199.5,480.4,194.1,475,187.4,475z M191.5,484.1v6.8c0,0,0,5-3.7,5.2s-6.4-5.1-6.4-5.1s6.3,5.1,6.3,0.9v-7.8h-3l4.9-5.1l4.3,5.1
	H191.5z"/>
<path class="st10" d="M262.3,398.8c-7.4,0-13.3,6-13.3,13.3c0,7.4,6,13.3,13.3,13.3c7.4,0,13.3-6,13.3-13.3l0,0
	C275.6,404.8,269.6,398.8,262.3,398.8z M271.1,414.4h-2.9l-4.8,7.7l-3.2-14.5l-2.8,6.7h-3.9v-1.9h2.6l4.6-11.1l3.5,15.8l2.9-4.7h4
	L271.1,414.4z"/>
<path class="st10" d="M114.3,399.6h-11.9v25.1h20v-17.2L114.3,399.6z M118.7,421.8H106v-2.2h12.6L118.7,421.8z M118.7,417.3H106
	v-2.2h12.6L118.7,417.3z M118.7,412.8H106v-2.2h12.6L118.7,412.8z M114.3,407.5V402l5.6,5.6L114.3,407.5z"/>
<path d="M31.2,343.1c2.1,2,10.1,8.9,13.5,8.9c3.3,0,7.2-3.9,8.2-5.4s-5.7-5.9-7.5-6.6s-2.9,7.7-11.1,0l-0.4-0.4
	c-8.1-7.7,0.8-8.8,0-10.5s-5.4-8.1-7-7.1c-1.5,1-5.6,4.7-5.6,7.9c0,3.2,7.3,10.8,9.4,12.8L31.2,343.1z"/>
<path class="st4" d="M50.1,400.5l-1-1c-2-2-5.2-2-7.2,0l-4.5,4.5c-1.9,1.9-2,5-0.2,6.9l-1.1,1.1c-2-1.8-5-1.7-6.9,0.2l-4.5,4.5
	c-2,2-2,5.2,0,7.2l1,1c2,2,5.2,2,7.2,0l4.5-4.5c1.8-1.9,2-4.8,0.3-6.8l1.1-1.1c2,1.7,5,1.6,6.8-0.3l4.5-4.5
	C52,405.7,52,402.5,50.1,400.5z M35.8,418.8l-4.5,4.5c-1.1,1.1-2.9,1.1-4,0l-1-1c-1.1-1.1-1.1-2.9,0-4l4.5-4.5c1-1,2.6-1.1,3.7-0.2
	L32,416c-0.4,0.4-0.4,1.1,0,1.6c0.4,0.5,1.1,0.4,1.6,0l2.5-2.4C36.9,416.2,36.8,417.8,35.8,418.8z M48.5,406.1l-4.5,4.5
	c-1,1-2.5,1.1-3.6,0.3l2.6-2.5c0.4-0.4,0.4-1.1,0-1.6c-0.4-0.4-1.1-0.4-1.6,0l-2.6,2.6c-0.9-1.1-0.9-2.8,0.1-3.8l4.5-4.5
	c1.1-1.1,2.9-1.1,4,0l1,1C49.6,403.2,49.6,405,48.5,406.1z"/>
</svg>
